<svg width="248" height="80" viewBox="0 0 248 80" fill="none" xmlns="http://www.w3.org/2000/svg">
<g clip-path="url(#clip0_3_2)">
<mask id="mask0_3_2" style="mask-type:luminance" maskUnits="userSpaceOnUse" x="0" y="21" width="45" height="38">
<path d="M44.5695 21H0V59H44.5695V21Z" fill="white"/>
</mask>
<g mask="url(#mask0_3_2)">
<path d="M0 46.5487C0 46.5487 3.70375 39.5804 11.0013 41.1588C18.2989 42.7372 20.9738 49.4124 24.6312 47.6468C28.2886 45.8811 23.458 50.0672 23.458 50.0672L18.8008 51.2768C18.8008 51.2768 10.8332 42.7372 7.96763 42.7372C5.10209 42.7372 0 46.5487 0 46.5487Z" fill="url(#paint0_linear_3_2)"/>
<path d="M41.3411 43.8409L40.9015 44.2212L39.6594 45.2934C39.6594 45.2934 23.1574 58.1007 19.4536 58.9113C17.8302 59.2673 16.9867 58.4867 16.5364 57.4016C15.9591 56.0105 16.0332 54.1147 15.9644 53.4585C15.8373 52.2861 12.8274 52.8222 12.8274 52.8222C16.4901 48.892 13.1505 44.8316 14.4455 45.2992C16.8781 46.3471 17.6633 50.3088 19.9118 50.1087C22.1536 49.9028 33.7906 41.3446 34.3507 40.614C34.9109 39.8835 34.3507 38.3551 34.3507 38.3551H36.778L39.6952 39.0857L41.3424 43.8394L41.3411 43.8409Z" fill="url(#paint1_linear_3_2)"/>
<path d="M40.9015 44.2212L39.6594 45.2935C39.6594 45.2935 23.1574 58.1007 19.4536 58.9114C17.8302 59.2674 16.9867 58.4867 16.5364 57.4016C17.5124 57.9063 18.7492 57.5446 21.3552 56.092C25.6945 53.6715 40.2195 42.2868 40.2195 42.2868L40.9015 44.2212Z" fill="url(#paint2_linear_3_2)"/>
<path d="M19.6046 28.1771L19.3795 29.5124L18.2989 35.8817L18.0738 37.2171L17.2886 37.6417L15.0348 38.8512C14.1741 38.3951 13.3769 38.0148 12.6433 37.716C5.69268 34.8466 4.08114 38.3465 4.08114 38.3465C4.08114 38.3465 3.59517 36.0447 5.65295 32.0458C7.66969 28.1285 11.5575 30.1801 11.7085 30.2616C11.633 30.1744 10.3909 28.7018 10.1433 26.5129C9.88373 24.254 11.2993 22.7571 11.2993 22.7571C11.2649 24.4541 13.0962 27.5237 14.3674 27.4422C14.7607 27.4179 15.1249 27.212 15.4427 26.9375C15.6334 26.776 15.8015 26.5944 15.9512 26.4071C16.0438 26.2884 16.1299 26.1769 16.2054 26.0697C16.4888 25.6708 16.6503 25.3391 16.6503 25.3391L17.9096 26.1755L18.6671 26.6745L18.8922 27.0362L19.2563 27.6224L19.6086 28.1771H19.6046Z" fill="url(#paint3_linear_3_2)"/>
<path d="M20.9275 21.6333C19.6973 21.4518 19.3504 22.1823 19.1133 23.4605C18.9809 24.1653 18.9915 24.9574 18.9743 26.3671C18.9743 26.5358 18.7253 26.6787 18.72 26.8532C18.6684 30.1529 18.1069 34.5392 16.2531 35.4871C14.8203 36.2177 12.9823 35.5872 11.9601 34.9138C11.6423 34.7079 11.3827 34.096 11.151 33.8902C11.053 33.69 11.0067 33.5785 11.0067 33.5785C12.2607 34.0832 13.1849 34.1718 13.8788 33.9716C15.6175 33.4784 15.832 31.1709 15.9128 29.175C15.9419 28.3701 15.9353 27.3965 15.9591 26.4057C15.9644 26.2627 15.971 26.1255 15.971 25.9811C16.0571 23.685 16.404 21.4089 18.005 21.0586C18.8829 20.8656 19.9462 21.1715 20.9288 21.6319L20.9275 21.6333Z" fill="url(#paint4_linear_3_2)"/>
<path d="M44.4834 40.4482C44.3047 41.1402 43.9167 41.7893 43.4373 42.3697C42.0098 44.0911 39.7574 45.2449 39.6647 45.2892L39.7455 45.1076C40.1269 44.3084 39.8951 43.3362 39.2145 42.8244L24.0181 31.5826C23.7228 31.3639 23.3706 31.2581 23.0184 31.3139C22.3192 31.4325 22.2265 32.0745 22.2265 32.0745L20.6957 32.0373V28.1757L20.9328 27.6452L21.1115 27.5709L20.3951 25.5064L21.7418 22.7557L22.1815 22.9301L24.0247 23.6478C24.0247 23.6478 37.9777 33.2611 39.625 34.515C41.2657 35.7631 45.1945 37.6589 44.4848 40.4482H44.4834Z" fill="url(#paint5_linear_3_2)"/>
<path d="M44.4834 40.4482C44.3047 41.1402 43.9167 41.7892 43.4373 42.3697C43.4546 41.5648 43.3049 40.2051 42.2588 39.2758C40.687 37.8847 22.2795 24.3726 22.2795 24.3726L22.1749 22.9258L24.0181 23.6435C24.0181 23.6435 37.9711 33.2568 39.6184 34.5106C41.2657 35.7645 45.1945 37.6603 44.4834 40.4496V40.4482Z" fill="url(#paint6_linear_3_2)"/>
<path d="M24.0181 23.6478C22.1457 23.4862 22.4463 26.9976 22.4463 26.9976V41.582C19.7198 41.582 17.5296 40.6712 15.8254 39.4603C15.5486 39.2673 15.2824 39.0614 15.0335 38.8484C13.2948 37.4072 12.156 35.7173 11.5443 34.6436C11.3655 34.3319 11.2317 34.0703 11.1404 33.883C11.1867 33.9273 11.2331 33.9645 11.2794 34.0017C11.3205 34.0389 11.3602 34.0703 11.4065 34.1075C11.4754 34.1632 11.5509 34.2204 11.6317 34.2819C11.6727 34.3134 11.7177 34.3448 11.7641 34.3748C11.7932 34.3934 11.8223 34.4192 11.8501 34.4377C11.8912 34.4692 11.9256 34.4935 11.9653 34.5192C12.1335 34.6322 12.3123 34.738 12.4963 34.8381C12.5255 34.8566 12.5546 34.8695 12.589 34.8824C12.6407 34.9067 12.687 34.9324 12.7387 34.9567C12.8022 34.9882 12.8658 35.0125 12.9294 35.0439C12.981 35.0625 13.034 35.0883 13.0856 35.1068C13.1373 35.1254 13.1836 35.144 13.2352 35.1569C13.3743 35.2012 13.5186 35.2441 13.6577 35.2698C13.7159 35.2827 13.7676 35.2941 13.8258 35.3013C13.8603 35.307 13.8947 35.3141 13.9304 35.3141C13.9821 35.327 14.0404 35.327 14.092 35.3327H14.1436C14.2125 35.3385 14.288 35.3456 14.3635 35.3456C14.8375 35.3456 15.3222 35.2398 15.8134 34.9896C15.8717 34.9582 15.9233 34.9338 15.975 34.8967C15.9869 34.891 15.9922 34.8838 15.9975 34.8781C16.0491 34.8466 16.0955 34.8152 16.1418 34.7723C16.1935 34.7351 16.2398 34.6908 16.2915 34.6408C16.3378 34.5964 16.3842 34.5407 16.4305 34.4906L16.4358 34.4849C16.4769 34.4406 16.5166 34.3848 16.5576 34.3348C16.5629 34.3291 16.5695 34.3219 16.5695 34.3162C16.6106 34.2605 16.6503 34.2104 16.6848 34.1547C16.7139 34.1046 16.743 34.0546 16.7774 34.0045C16.8066 33.9602 16.8357 33.9116 16.8582 33.8616C16.8874 33.8115 16.9099 33.7615 16.9337 33.7115C16.9628 33.6557 16.992 33.5928 17.0145 33.5299C17.0436 33.4555 17.078 33.3798 17.1072 33.2997C17.1363 33.2311 17.1588 33.1624 17.1826 33.0938C17.2171 33.0009 17.2462 32.9065 17.2753 32.8065C17.327 32.632 17.3733 32.4576 17.4144 32.276C17.4197 32.2632 17.4263 32.2446 17.4263 32.226C17.4554 32.0887 17.4846 31.9515 17.5124 31.8085C17.5177 31.7771 17.5243 31.7456 17.5296 31.7084C17.5468 31.6084 17.564 31.5154 17.5812 31.4154C17.5984 31.3281 17.6104 31.2338 17.6223 31.1409C17.6395 31.0351 17.6514 30.9221 17.6686 30.8034C17.6805 30.7034 17.6911 30.6104 17.7031 30.5104C17.7203 30.3359 17.7441 30.1615 17.7547 29.9799C17.76 29.8984 17.7666 29.8184 17.7719 29.7426C17.8527 28.7189 17.8765 27.6595 17.8937 26.6673C17.8937 26.4929 17.899 26.3299 17.899 26.1626C17.899 25.9811 17.9043 25.8066 17.9043 25.6322C17.9043 25.5264 17.9043 25.4206 17.9096 25.3134C17.9149 24.9646 17.9215 24.6329 17.9321 24.3212C17.9321 24.2583 17.9374 24.2025 17.9374 24.1396C17.9546 23.7221 17.9785 23.3604 18.0182 23.0545C18.0235 23.0102 18.0301 22.9673 18.0354 22.9301C18.0407 22.8858 18.0473 22.8486 18.0526 22.8114C18.295 21.5333 19.3755 21.0643 20.9063 21.6076C22.5814 22.4183 24.0141 23.6478 24.0141 23.6478H24.0181Z" fill="url(#paint7_linear_3_2)"/>
<path d="M5.66752 48.669C5.66752 48.669 7.90937 51.5756 10.5498 49.9972C13.1849 48.4188 10.4915 39.5175 0 46.5416C0 46.5416 4.17119 40.9772 9.98967 42.5613C15.6175 44.0954 15.5711 47.7268 15.3341 49.5854C15.0971 51.444 12.1799 55.1441 8.25101 53.5657C5.80656 52.5992 5.52451 50.3532 5.66885 48.669H5.66752Z" fill="url(#paint8_linear_3_2)"/>
</g>
<path d="M61.4335 36.161C62.3575 36.161 63.1788 36.3663 63.8975 36.777C64.6161 37.173 65.1735 37.767 65.5695 38.559C65.9801 39.3363 66.1855 40.275 66.1855 41.375V48.525H63.1055V41.793C63.1055 40.825 62.8635 40.0843 62.3795 39.571C61.8955 39.043 61.2355 38.779 60.3995 38.779C59.5488 38.779 58.8741 39.043 58.3755 39.571C57.8915 40.0843 57.6495 40.825 57.6495 41.793V48.525H54.5695V32.245H57.6495V37.855C58.0455 37.327 58.5735 36.9163 59.2335 36.623C59.8935 36.315 60.6268 36.161 61.4335 36.161ZM68.1024 42.387C68.1024 41.155 68.3444 40.0623 68.8284 39.109C69.3271 38.1557 70.0017 37.4223 70.8524 36.909C71.7031 36.3957 72.6491 36.139 73.6904 36.139C74.4824 36.139 75.2377 36.315 75.9564 36.667C76.6751 37.0043 77.2471 37.459 77.6724 38.031V32.245H80.7964V48.525H77.6724V46.721C77.2911 47.3223 76.7557 47.8063 76.0664 48.173C75.3771 48.5397 74.5777 48.723 73.6684 48.723C72.6417 48.723 71.7031 48.459 70.8524 47.931C70.0017 47.403 69.3271 46.6623 68.8284 45.709C68.3444 44.741 68.1024 43.6337 68.1024 42.387ZM77.6944 42.431C77.6944 41.683 77.5477 41.045 77.2544 40.517C76.9611 39.9743 76.5651 39.5637 76.0664 39.285C75.5677 38.9917 75.0324 38.845 74.4604 38.845C73.8884 38.845 73.3604 38.9843 72.8764 39.263C72.3924 39.5417 71.9964 39.9523 71.6884 40.495C71.3951 41.023 71.2484 41.6537 71.2484 42.387C71.2484 43.1203 71.3951 43.7657 71.6884 44.323C71.9964 44.8657 72.3924 45.2837 72.8764 45.577C73.3751 45.8703 73.9031 46.017 74.4604 46.017C75.0324 46.017 75.5677 45.8777 76.0664 45.599C76.5651 45.3057 76.9611 44.895 77.2544 44.367C77.5477 43.8243 77.6944 43.179 77.6944 42.431ZM89.1725 38.867H87.0385V48.525H83.9145V38.867H82.5285V36.337H83.9145V35.721C83.9145 34.225 84.3399 33.125 85.1905 32.421C86.0412 31.717 87.3245 31.387 89.0405 31.431V34.027C88.2925 34.0123 87.7719 34.137 87.4785 34.401C87.1852 34.665 87.0385 35.1417 87.0385 35.831V36.337H89.1725V38.867ZM92.5105 34.885C91.9679 34.885 91.5132 34.7163 91.1465 34.379C90.7945 34.027 90.6185 33.5943 90.6185 33.081C90.6185 32.5677 90.7945 32.1423 91.1465 31.805C91.5132 31.453 91.9679 31.277 92.5105 31.277C93.0532 31.277 93.5005 31.453 93.8525 31.805C94.2192 32.1423 94.4025 32.5677 94.4025 33.081C94.4025 33.5943 94.2192 34.027 93.8525 34.379C93.5005 34.7163 93.0532 34.885 92.5105 34.885ZM94.0285 36.337V48.525H90.9485V36.337H94.0285ZM99.9316 32.245V48.525H96.8516V32.245H99.9316ZM117.891 36.161C119.387 36.161 120.589 36.623 121.499 37.547C122.423 38.4563 122.885 39.7323 122.885 41.375V48.525H119.805V41.793C119.805 40.8397 119.563 40.1137 119.079 39.615C118.595 39.1017 117.935 38.845 117.099 38.845C116.263 38.845 115.595 39.1017 115.097 39.615C114.613 40.1137 114.371 40.8397 114.371 41.793V48.525H111.291V41.793C111.291 40.8397 111.049 40.1137 110.565 39.615C110.081 39.1017 109.421 38.845 108.585 38.845C107.734 38.845 107.059 39.1017 106.561 39.615C106.077 40.1137 105.835 40.8397 105.835 41.793V48.525H102.755V36.337H105.835V37.811C106.231 37.2977 106.737 36.8943 107.353 36.601C107.983 36.3077 108.673 36.161 109.421 36.161C110.374 36.161 111.225 36.3663 111.973 36.777C112.721 37.173 113.3 37.745 113.711 38.493C114.107 37.789 114.679 37.2243 115.427 36.799C116.189 36.3737 117.011 36.161 117.891 36.161ZM124.795 42.431C124.795 41.1697 125.052 40.0697 125.565 39.131C126.079 38.1777 126.79 37.4443 127.699 36.931C128.609 36.403 129.65 36.139 130.823 36.139C132.334 36.139 133.581 36.5203 134.563 37.283C135.561 38.031 136.228 39.087 136.565 40.451H133.243C133.067 39.923 132.767 39.5123 132.341 39.219C131.931 38.911 131.417 38.757 130.801 38.757C129.921 38.757 129.225 39.0797 128.711 39.725C128.198 40.3557 127.941 41.2577 127.941 42.431C127.941 43.5897 128.198 44.4917 128.711 45.137C129.225 45.7677 129.921 46.083 130.801 46.083C132.048 46.083 132.862 45.5257 133.243 44.411H136.565C136.228 45.731 135.561 46.7797 134.563 47.557C133.566 48.3343 132.319 48.723 130.823 48.723C129.65 48.723 128.609 48.4663 127.699 47.953C126.79 47.425 126.079 46.6917 125.565 45.753C125.052 44.7997 124.795 43.6923 124.795 42.431ZM149.932 42.167C149.932 42.607 149.902 43.003 149.844 43.355H140.934C141.007 44.235 141.315 44.9243 141.858 45.423C142.4 45.9217 143.068 46.171 143.86 46.171C145.004 46.171 145.818 45.6797 146.302 44.697H149.624C149.272 45.8703 148.597 46.8383 147.6 47.601C146.602 48.349 145.378 48.723 143.926 48.723C142.752 48.723 141.696 48.4663 140.758 47.953C139.834 47.425 139.108 46.6843 138.58 45.731C138.066 44.7777 137.81 43.6777 137.81 42.431C137.81 41.1697 138.066 40.0623 138.58 39.109C139.093 38.1557 139.812 37.4223 140.736 36.909C141.66 36.3957 142.723 36.139 143.926 36.139C145.084 36.139 146.118 36.3883 147.028 36.887C147.952 37.3857 148.663 38.097 149.162 39.021C149.675 39.9303 149.932 40.979 149.932 42.167ZM146.742 41.287C146.727 40.495 146.441 39.8643 145.884 39.395C145.326 38.911 144.644 38.669 143.838 38.669C143.075 38.669 142.43 38.9037 141.902 39.373C141.388 39.8277 141.073 40.4657 140.956 41.287H146.742ZM158.824 36.161C159.748 36.161 160.569 36.3663 161.288 36.777C162.006 37.173 162.564 37.767 162.96 38.559C163.37 39.3363 163.576 40.275 163.576 41.375V48.525H160.496V41.793C160.496 40.825 160.254 40.0843 159.77 39.571C159.286 39.043 158.626 38.779 157.79 38.779C156.939 38.779 156.264 39.043 155.766 39.571C155.282 40.0843 155.04 40.825 155.04 41.793V48.525H151.96V32.245H155.04V37.855C155.436 37.327 155.964 36.9163 156.624 36.623C157.284 36.315 158.017 36.161 158.824 36.161ZM177.615 42.167C177.615 42.607 177.585 43.003 177.527 43.355H168.617C168.69 44.235 168.998 44.9243 169.541 45.423C170.083 45.9217 170.751 46.171 171.543 46.171C172.687 46.171 173.501 45.6797 173.985 44.697H177.307C176.955 45.8703 176.28 46.8383 175.283 47.601C174.285 48.349 173.061 48.723 171.609 48.723C170.435 48.723 169.379 48.4663 168.441 47.953C167.517 47.425 166.791 46.6843 166.263 45.731C165.749 44.7777 165.493 43.6777 165.493 42.431C165.493 41.1697 165.749 40.0623 166.263 39.109C166.776 38.1557 167.495 37.4223 168.419 36.909C169.343 36.3957 170.406 36.139 171.609 36.139C172.767 36.139 173.801 36.3883 174.711 36.887C175.635 37.3857 176.346 38.097 176.845 39.021C177.358 39.9303 177.615 40.979 177.615 42.167ZM174.425 41.287C174.41 40.495 174.124 39.8643 173.567 39.395C173.009 38.911 172.327 38.669 171.521 38.669C170.758 38.669 170.113 38.9037 169.585 39.373C169.071 39.8277 168.756 40.4657 168.639 41.287H174.425ZM186.397 36.161C187.849 36.161 189.022 36.623 189.917 37.547C190.811 38.4563 191.259 39.7323 191.259 41.375V48.525H188.179V41.793C188.179 40.825 187.937 40.0843 187.453 39.571C186.969 39.043 186.309 38.779 185.473 38.779C184.622 38.779 183.947 39.043 183.449 39.571C182.965 40.0843 182.723 40.825 182.723 41.793V48.525H179.643V36.337H182.723V37.855C183.133 37.327 183.654 36.9163 184.285 36.623C184.93 36.315 185.634 36.161 186.397 36.161ZM200.722 36.161C202.174 36.161 203.347 36.623 204.242 37.547C205.136 38.4563 205.584 39.7323 205.584 41.375V48.525H202.504V41.793C202.504 40.825 202.262 40.0843 201.778 39.571C201.294 39.043 200.634 38.779 199.798 38.779C198.947 38.779 198.272 39.043 197.774 39.571C197.29 40.0843 197.048 40.825 197.048 41.793V48.525H193.968V36.337H197.048V37.855C197.458 37.327 197.979 36.9163 198.61 36.623C199.255 36.315 199.959 36.161 200.722 36.161ZM219.623 42.167C219.623 42.607 219.593 43.003 219.535 43.355H210.625C210.698 44.235 211.006 44.9243 211.549 45.423C212.091 45.9217 212.759 46.171 213.551 46.171C214.695 46.171 215.509 45.6797 215.993 44.697H219.315C218.963 45.8703 218.288 46.8383 217.291 47.601C216.293 48.349 215.069 48.723 213.617 48.723C212.443 48.723 211.387 48.4663 210.449 47.953C209.525 47.425 208.799 46.6843 208.271 45.731C207.757 44.7777 207.501 43.6777 207.501 42.431C207.501 41.1697 207.757 40.0623 208.271 39.109C208.784 38.1557 209.503 37.4223 210.427 36.909C211.351 36.3957 212.414 36.139 213.617 36.139C214.775 36.139 215.809 36.3883 216.719 36.887C217.643 37.3857 218.354 38.097 218.853 39.021C219.366 39.9303 219.623 40.979 219.623 42.167ZM216.433 41.287C216.418 40.495 216.132 39.8643 215.575 39.395C215.017 38.911 214.335 38.669 213.529 38.669C212.766 38.669 212.121 38.9037 211.593 39.373C211.079 39.8277 210.764 40.4657 210.647 41.287H216.433ZM236.787 36.161C238.283 36.161 239.485 36.623 240.395 37.547C241.319 38.4563 241.781 39.7323 241.781 41.375V48.525H238.701V41.793C238.701 40.8397 238.459 40.1137 237.975 39.615C237.491 39.1017 236.831 38.845 235.995 38.845C235.159 38.845 234.491 39.1017 233.993 39.615C233.509 40.1137 233.267 40.8397 233.267 41.793V48.525H230.187V41.793C230.187 40.8397 229.945 40.1137 229.461 39.615C228.977 39.1017 228.317 38.845 227.481 38.845C226.63 38.845 225.955 39.1017 225.457 39.615C224.973 40.1137 224.731 40.8397 224.731 41.793V48.525H221.651V36.337H224.731V37.811C225.127 37.2977 225.633 36.8943 226.249 36.601C226.879 36.3077 227.569 36.161 228.317 36.161C229.27 36.161 230.121 36.3663 230.869 36.777C231.617 37.173 232.196 37.745 232.607 38.493C233.003 37.789 233.575 37.2243 234.323 36.799C235.085 36.3737 235.907 36.161 236.787 36.161ZM246.046 34.885C245.503 34.885 245.048 34.7163 244.682 34.379C244.33 34.027 244.154 33.5943 244.154 33.081C244.154 32.5677 244.33 32.1423 244.682 31.805C245.048 31.453 245.503 31.277 246.046 31.277C246.588 31.277 247.036 31.453 247.388 31.805C247.754 32.1423 247.938 32.5677 247.938 33.081C247.938 33.5943 247.754 34.027 247.388 34.379C247.036 34.7163 246.588 34.885 246.046 34.885ZM247.564 36.337V48.525H244.484V36.337H247.564Z" fill="white"/>
</g>
<defs>
<linearGradient id="paint0_linear_3_2" x1="23.8155" y1="53.4699" x2="6.03668" y2="44.2144" gradientUnits="userSpaceOnUse">
<stop stop-color="#D60007"/>
<stop offset="1" stop-color="#F28300"/>
</linearGradient>
<linearGradient id="paint1_linear_3_2" x1="36.9554" y1="37.2585" x2="11.9305" y2="54.4487" gradientUnits="userSpaceOnUse">
<stop stop-color="#D60007"/>
<stop offset="1" stop-color="#F28300"/>
</linearGradient>
<linearGradient id="paint2_linear_3_2" x1="39.0304" y1="42.5956" x2="15.4852" y2="58.7679" gradientUnits="userSpaceOnUse">
<stop stop-color="#D60007"/>
<stop offset="0.28" stop-color="#E02F00"/>
<stop offset="0.8" stop-color="#F28300"/>
<stop offset="1" stop-color="#F7CA1B"/>
</linearGradient>
<linearGradient id="paint3_linear_3_2" x1="15.2983" y1="34.2962" x2="6.55029" y2="30.5644" gradientUnits="userSpaceOnUse">
<stop stop-color="#D60007"/>
<stop offset="1" stop-color="#F28300"/>
</linearGradient>
<linearGradient id="paint4_linear_3_2" x1="14.1264" y1="36.8053" x2="17.6339" y2="21.7702" gradientUnits="userSpaceOnUse">
<stop stop-color="#D60007"/>
<stop offset="0.77" stop-color="#F28300"/>
<stop offset="1" stop-color="#F7CA1B"/>
</linearGradient>
<linearGradient id="paint5_linear_3_2" x1="20.3965" y1="34.0217" x2="44.5695" y2="34.0217" gradientUnits="userSpaceOnUse">
<stop stop-color="#D60007"/>
<stop offset="1" stop-color="#F28300"/>
</linearGradient>
<linearGradient id="paint6_linear_3_2" x1="19.108" y1="24.0781" x2="47.4706" y2="38.9346" gradientUnits="userSpaceOnUse">
<stop stop-color="#D60007"/>
<stop offset="0.28" stop-color="#E02F00"/>
<stop offset="0.8" stop-color="#F28300"/>
<stop offset="1" stop-color="#F7CA1B"/>
</linearGradient>
<linearGradient id="paint7_linear_3_2" x1="22.29" y1="51.1481" x2="14.4352" y2="19.1374" gradientUnits="userSpaceOnUse">
<stop stop-color="#D60007"/>
<stop offset="0.91" stop-color="#F28300"/>
<stop offset="1" stop-color="#F7CA1B"/>
</linearGradient>
<linearGradient id="paint8_linear_3_2" x1="12.8208" y1="42.5499" x2="3.34305" y2="52.004" gradientUnits="userSpaceOnUse">
<stop stop-color="#D60007"/>
<stop offset="1" stop-color="#F28300"/>
</linearGradient>
<clipPath id="clip0_3_2">
<rect width="247.938" height="80" fill="white"/>
</clipPath>
</defs>
</svg>
